<?xml version="1.0" encoding="utf-8" standalone="no"?>
<!DOCTYPE svg PUBLIC "-//W3C//DTD SVG 1.1//EN"
  "http://www.w3.org/Graphics/SVG/1.1/DTD/svg11.dtd">
<svg xmlns:xlink="http://www.w3.org/1999/xlink" width="396.065pt" height="287.16125pt" viewBox="0 0 396.065 287.16125" xmlns="http://www.w3.org/2000/svg" version="1.1">
 <metadata>
  <rdf:RDF xmlns:dc="http://purl.org/dc/elements/1.1/" xmlns:cc="http://creativecommons.org/ns#" xmlns:rdf="http://www.w3.org/1999/02/22-rdf-syntax-ns#">
   <cc:Work>
    <dc:type rdf:resource="http://purl.org/dc/dcmitype/StillImage"/>
    <dc:date>2026-05-17T21:44:27.676120</dc:date>
    <dc:format>image/svg+xml</dc:format>
    <dc:creator>
     <cc:Agent>
      <dc:title>Matplotlib v3.10.0, https://matplotlib.org/</dc:title>
     </cc:Agent>
    </dc:creator>
   </cc:Work>
  </rdf:RDF>
 </metadata>
 <defs>
  <style type="text/css">*{stroke-linejoin: round; stroke-linecap: butt}</style>
 </defs>
 <g id="figure_1">
  <g id="patch_1">
   <path d="M 0 287.16125 
L 396.065 287.16125 
L 396.065 0 
L 0 0 
z
" style="fill: #ffffff"/>
  </g>
  <g id="axes_1">
   <g id="patch_2">
    <path d="M 54.065 244.15125 
L 388.865 244.15125 
L 388.865 22.39125 
L 54.065 22.39125 
z
" style="fill: #eaeaf2"/>
   </g>
   <g id="matplotlib.axis_1">
    <g id="xtick_1">
     <g id="line2d_1">
      <path d="M 71.891775 244.15125 
L 71.891775 22.39125 
" clip-path="url(#p6d71c5ebe6)" style="fill: none; stroke: #ffffff; stroke-linecap: round"/>
     </g>
     <g id="text_1">
      <!-- 18 -->
      <g style="fill: #262626" transform="translate(64.664431 262.076563) scale(0.11 -0.11)">
       <defs>
        <path id="HiraginoSansGB-W3-31" d="M 1030 4429 
C 1216 4454 1382 4467 1587 4467 
L 1933 4467 
L 1933 762 
C 1933 467 1920 262 1882 38 
L 2490 38 
C 2451 275 2438 461 2438 762 
L 2438 3872 
C 2438 4218 2458 4544 2496 4934 
C 2285 4909 2182 4902 1965 4902 
L 1562 4902 
C 1318 4902 1197 4909 1030 4934 
L 1030 4429 
z
" transform="scale(0.015625)"/>
        <path id="HiraginoSansGB-W3-38" d="M 2752 2586 
C 3322 2694 3680 3142 3680 3738 
C 3680 4525 3078 5005 2099 5005 
C 1133 5005 525 4512 525 3738 
C 525 3142 890 2688 1453 2586 
C 1216 2547 1075 2496 877 2368 
C 493 2118 307 1766 307 1306 
C 307 422 954 -64 2125 -64 
C 3251 -64 3891 429 3891 1306 
C 3891 1734 3731 2074 3411 2310 
C 3200 2470 3021 2547 2752 2586 
z
M 2099 4576 
C 2758 4576 3181 4237 3181 3699 
C 3181 3130 2778 2784 2106 2784 
C 1434 2784 1024 3130 1024 3699 
C 1024 4230 1446 4576 2099 4576 
z
M 2099 2342 
C 2886 2342 3366 1965 3366 1338 
C 3366 1075 3283 851 3123 704 
C 2906 486 2541 371 2093 371 
C 1299 371 832 730 832 1338 
C 832 1958 1312 2342 2099 2342 
z
" transform="scale(0.015625)"/>
       </defs>
       <use xlink:href="#HiraginoSansGB-W3-31"/>
       <use xlink:href="#HiraginoSansGB-W3-38" transform="translate(65.699997 0)"/>
      </g>
     </g>
    </g>
    <g id="xtick_2">
     <g id="line2d_2">
      <path d="M 117.828239 244.15125 
L 117.828239 22.39125 
" clip-path="url(#p6d71c5ebe6)" style="fill: none; stroke: #ffffff; stroke-linecap: round"/>
     </g>
     <g id="text_2">
      <!-- 20 -->
      <g style="fill: #262626" transform="translate(110.600896 262.076563) scale(0.11 -0.11)">
       <defs>
        <path id="HiraginoSansGB-W3-32" d="M 3027 38 
C 3347 38 3558 26 3814 0 
L 3814 538 
C 3571 506 3354 493 3034 493 
L 992 493 
C 1069 800 1158 973 1357 1235 
C 1568 1504 1773 1683 2278 2022 
C 3008 2509 3174 2630 3366 2848 
C 3616 3123 3744 3430 3744 3757 
C 3744 4512 3123 4998 2157 4998 
C 1594 4998 1158 4832 870 4506 
C 659 4269 563 4045 467 3584 
L 1005 3494 
C 1050 3814 1107 3968 1229 4141 
C 1421 4416 1734 4557 2157 4557 
C 2810 4557 3219 4243 3219 3757 
C 3219 3366 3008 3085 2374 2656 
C 1632 2150 1619 2144 1395 1952 
C 992 1606 723 1254 563 851 
C 467 608 448 512 378 6 
C 582 32 678 38 1082 38 
L 3027 38 
z
" transform="scale(0.015625)"/>
        <path id="HiraginoSansGB-W3-30" d="M 2099 -58 
C 2688 -58 3136 166 3456 614 
C 3738 1005 3904 1690 3904 2464 
C 3904 2995 3821 3507 3661 3949 
C 3584 4160 3456 4358 3277 4538 
C 2989 4838 2579 4992 2106 4992 
C 1472 4992 979 4723 672 4205 
C 448 3834 301 3142 301 2464 
C 301 1939 384 1434 544 986 
C 621 768 755 570 928 397 
C 1229 96 1626 -58 2099 -58 
z
M 2099 4550 
C 2547 4550 2893 4352 3104 3968 
C 3270 3667 3392 3034 3392 2477 
C 3392 2003 3328 1581 3194 1184 
C 3136 998 3034 832 2893 685 
C 2701 486 2426 384 2106 384 
C 1670 384 1338 570 1114 941 
C 941 1242 813 1869 813 2464 
C 813 2931 877 3366 1011 3757 
C 1062 3917 1165 4077 1299 4224 
C 1504 4442 1766 4550 2099 4550 
z
" transform="scale(0.015625)"/>
       </defs>
       <use xlink:href="#HiraginoSansGB-W3-32"/>
       <use xlink:href="#HiraginoSansGB-W3-30" transform="translate(65.699997 0)"/>
      </g>
     </g>
    </g>
    <g id="xtick_3">
     <g id="line2d_3">
      <path d="M 163.764704 244.15125 
L 163.764704 22.39125 
" clip-path="url(#p6d71c5ebe6)" style="fill: none; stroke: #ffffff; stroke-linecap: round"/>
     </g>
     <g id="text_3">
      <!-- 22 -->
      <g style="fill: #262626" transform="translate(156.53736 262.076563) scale(0.11 -0.11)">
       <use xlink:href="#HiraginoSansGB-W3-32"/>
       <use xlink:href="#HiraginoSansGB-W3-32" transform="translate(65.699997 0)"/>
      </g>
     </g>
    </g>
    <g id="xtick_4">
     <g id="line2d_4">
      <path d="M 209.701168 244.15125 
L 209.701168 22.39125 
" clip-path="url(#p6d71c5ebe6)" style="fill: none; stroke: #ffffff; stroke-linecap: round"/>
     </g>
     <g id="text_4">
      <!-- 24 -->
      <g style="fill: #262626" transform="translate(202.45234 262.076563) scale(0.11 -0.11)">
       <defs>
        <path id="HiraginoSansGB-W3-34" d="M 198 1254 
C 410 1274 602 1280 960 1280 
L 2675 1280 
L 2675 730 
C 2675 442 2662 262 2624 38 
L 3206 38 
C 3168 275 3155 422 3155 730 
L 3155 1280 
L 3392 1280 
C 3667 1280 3827 1267 4064 1235 
L 4064 1766 
C 3834 1734 3667 1722 3398 1722 
L 3155 1722 
L 3155 3821 
C 3155 4326 3162 4525 3194 4902 
L 2714 4902 
C 2566 4678 2451 4518 2234 4250 
L 614 2227 
C 480 2067 333 1888 198 1734 
L 198 1254 
z
M 2682 1715 
L 768 1715 
L 2240 3571 
C 2426 3808 2586 4019 2720 4211 
C 2688 3885 2682 3680 2682 3341 
L 2682 1715 
z
" transform="scale(0.015625)"/>
       </defs>
       <use xlink:href="#HiraginoSansGB-W3-32"/>
       <use xlink:href="#HiraginoSansGB-W3-34" transform="translate(65.699997 0)"/>
      </g>
     </g>
    </g>
    <g id="xtick_5">
     <g id="line2d_5">
      <path d="M 255.637633 244.15125 
L 255.637633 22.39125 
" clip-path="url(#p6d71c5ebe6)" style="fill: none; stroke: #ffffff; stroke-linecap: round"/>
     </g>
     <g id="text_5">
      <!-- 26 -->
      <g style="fill: #262626" transform="translate(248.410289 262.076563) scale(0.11 -0.11)">
       <defs>
        <path id="HiraginoSansGB-W3-36" d="M 3725 4006 
C 3539 4390 3411 4563 3187 4723 
C 2944 4896 2598 4992 2214 4992 
C 1658 4992 1203 4755 864 4294 
C 557 3878 378 3162 378 2362 
C 378 1453 608 736 1024 352 
C 1299 96 1728 -51 2182 -51 
C 3194 -51 3859 602 3859 1594 
C 3859 2579 3245 3194 2253 3194 
C 1811 3194 1472 3072 1171 2803 
C 1030 2682 966 2592 851 2394 
C 896 3091 954 3386 1120 3770 
C 1350 4294 1728 4563 2227 4563 
C 2547 4563 2797 4454 2989 4243 
C 3085 4134 3130 4045 3213 3840 
L 3725 4006 
z
M 3354 1581 
C 3354 1331 3290 1069 3187 902 
C 2989 582 2605 384 2189 384 
C 1498 384 979 896 979 1587 
C 979 1907 1088 2189 1299 2400 
C 1523 2624 1862 2765 2182 2765 
C 2931 2765 3354 2336 3354 1581 
z
" transform="scale(0.015625)"/>
       </defs>
       <use xlink:href="#HiraginoSansGB-W3-32"/>
       <use xlink:href="#HiraginoSansGB-W3-36" transform="translate(65.699997 0)"/>
      </g>
     </g>
    </g>
    <g id="xtick_6">
     <g id="line2d_6">
      <path d="M 301.574097 244.15125 
L 301.574097 22.39125 
" clip-path="url(#p6d71c5ebe6)" style="fill: none; stroke: #ffffff; stroke-linecap: round"/>
     </g>
     <g id="text_6">
      <!-- 28 -->
      <g style="fill: #262626" transform="translate(294.346754 262.076563) scale(0.11 -0.11)">
       <use xlink:href="#HiraginoSansGB-W3-32"/>
       <use xlink:href="#HiraginoSansGB-W3-38" transform="translate(65.699997 0)"/>
      </g>
     </g>
    </g>
    <g id="xtick_7">
     <g id="line2d_7">
      <path d="M 347.510562 244.15125 
L 347.510562 22.39125 
" clip-path="url(#p6d71c5ebe6)" style="fill: none; stroke: #ffffff; stroke-linecap: round"/>
     </g>
     <g id="text_7">
      <!-- 30 -->
      <g style="fill: #262626" transform="translate(340.283218 262.076563) scale(0.11 -0.11)">
       <defs>
        <path id="HiraginoSansGB-W3-33" d="M 288 1088 
C 403 762 480 621 614 467 
C 922 122 1402 -58 2048 -58 
C 3117 -58 3782 480 3782 1344 
C 3782 1754 3635 2093 3354 2310 
C 3136 2477 2938 2547 2566 2586 
C 2861 2643 3002 2694 3168 2816 
C 3450 3014 3616 3360 3616 3750 
C 3616 4518 3027 5005 2099 5005 
C 1542 5005 1107 4845 826 4538 
C 666 4371 589 4224 480 3898 
L 1011 3782 
C 1082 4019 1126 4122 1216 4237 
C 1395 4467 1677 4576 2067 4576 
C 2714 4576 3098 4256 3098 3706 
C 3098 3475 3002 3238 2842 3085 
C 2643 2886 2330 2790 1907 2790 
C 1734 2790 1581 2803 1434 2829 
L 1434 2323 
C 1606 2342 1766 2355 1946 2355 
C 2797 2355 3251 2010 3251 1376 
C 3251 768 2784 384 2042 384 
C 1715 384 1434 461 1216 614 
C 1018 755 928 890 826 1222 
L 288 1088 
z
" transform="scale(0.015625)"/>
       </defs>
       <use xlink:href="#HiraginoSansGB-W3-33"/>
       <use xlink:href="#HiraginoSansGB-W3-30" transform="translate(65.699997 0)"/>
      </g>
     </g>
    </g>
    <g id="text_8">
     <!-- 对数总资产 -->
     <g style="fill: #262626" transform="translate(191.465 277.5125) scale(0.12 -0.12)">
      <defs>
       <path id="HiraginoSansGB-W3-5bf9" d="M 5267 3853 
L 5267 4493 
C 5267 4800 5280 5024 5306 5248 
L 4819 5248 
C 4851 5043 4864 4806 4864 4499 
L 4864 3853 
L 3661 3853 
C 3398 3853 3168 3866 2995 3891 
L 2995 3450 
C 3155 3475 3405 3488 3667 3488 
L 4864 3488 
L 4864 186 
C 4864 38 4813 13 4544 13 
C 4301 13 4090 32 3808 77 
C 3878 -96 3891 -147 3917 -339 
C 4179 -358 4352 -365 4550 -365 
C 5146 -365 5267 -282 5267 128 
L 5267 3488 
L 5510 3488 
C 5741 3488 5933 3475 6112 3456 
L 6112 3891 
C 5946 3866 5760 3853 5504 3853 
L 5267 3853 
z
M 3091 973 
C 2822 1363 2637 1619 2298 2074 
C 2554 2733 2733 3475 2829 4275 
C 2861 4531 2861 4538 2893 4723 
C 2733 4710 2598 4704 2387 4704 
L 947 4704 
C 704 4704 550 4710 390 4736 
L 390 4288 
C 550 4314 704 4320 941 4320 
L 2419 4320 
C 2304 3475 2195 2976 2003 2451 
C 1664 2861 1229 3341 883 3693 
L 582 3437 
C 1210 2803 1485 2496 1837 2029 
C 1741 1811 1594 1530 1459 1325 
C 1126 787 800 448 218 6 
C 371 -134 384 -154 499 -352 
C 1248 218 1670 742 2118 1651 
C 2330 1357 2515 1082 2758 678 
L 3091 973 
z
M 4314 1498 
C 4064 2042 3878 2355 3456 2950 
L 3136 2746 
C 3514 2227 3686 1914 3955 1286 
L 4314 1498 
z
" transform="scale(0.015625)"/>
       <path id="HiraginoSansGB-W3-6570" d="M 6138 4115 
C 5965 4083 5837 4077 5542 4077 
L 4186 4077 
C 4294 4422 4314 4486 4397 4819 
C 4480 5133 4480 5133 4512 5222 
L 4077 5318 
C 4051 4915 3930 4410 3750 3942 
C 3526 3347 3296 2950 2963 2560 
C 3104 2483 3168 2438 3283 2310 
C 3501 2592 3597 2739 3750 3053 
C 3878 2285 4058 1760 4410 1171 
C 4019 634 3507 230 2752 -134 
C 2861 -243 2938 -339 3014 -493 
C 3731 -102 4211 288 4640 826 
C 5018 307 5478 -102 6061 -442 
C 6144 -262 6195 -173 6298 -45 
C 5690 275 5242 659 4877 1165 
C 5318 1875 5530 2618 5594 3712 
C 5888 3712 5997 3706 6138 3680 
L 6138 4115 
z
M 5197 3712 
C 5165 3136 5126 2867 5005 2451 
C 4909 2099 4813 1850 4640 1536 
C 4448 1875 4314 2195 4186 2643 
C 4096 2957 4096 2957 3994 3571 
C 4000 3590 4006 3597 4026 3642 
C 4032 3661 4038 3680 4051 3712 
L 5197 3712 
z
M 3014 314 
C 2765 474 2714 499 2445 640 
C 2803 1101 2957 1389 3162 2029 
C 2880 2016 2726 2010 2694 2010 
L 1798 2010 
C 1843 2099 1875 2176 1978 2426 
L 1587 2515 
C 1510 2259 1466 2150 1395 2010 
L 832 2010 
C 602 2010 486 2016 371 2042 
L 371 1638 
C 493 1664 614 1670 832 1670 
L 1222 1670 
C 1056 1382 986 1274 762 979 
C 1331 768 1498 698 1818 544 
C 1434 262 966 58 333 -96 
C 429 -218 480 -307 538 -448 
C 1350 -186 1830 51 2176 358 
C 2419 224 2515 160 2790 -38 
L 3014 314 
z
M 2650 1670 
C 2547 1389 2349 1075 2106 806 
C 1786 954 1670 1005 1299 1146 
C 1485 1427 1542 1517 1626 1670 
L 2650 1670 
z
M 2112 4019 
L 2112 4877 
C 2112 5056 2118 5165 2144 5306 
L 1715 5306 
C 1741 5158 1747 5043 1747 4877 
L 1747 4019 
L 915 4019 
C 666 4019 531 4026 397 4051 
L 397 3654 
C 531 3680 666 3686 902 3686 
L 1491 3686 
C 1338 3469 1325 3450 1235 3354 
C 979 3072 736 2893 288 2624 
C 410 2528 480 2451 570 2317 
C 1197 2765 1446 3021 1773 3578 
C 1754 3398 1747 3328 1747 3206 
L 1747 2848 
C 1747 2758 1741 2669 1722 2586 
L 2138 2586 
C 2118 2669 2112 2758 2112 2854 
L 2112 3245 
C 2157 3219 2182 3206 2240 3174 
C 2547 2995 2618 2944 2899 2701 
L 3117 3014 
C 2662 3302 2662 3302 2112 3565 
L 2112 3686 
L 2950 3686 
C 3168 3686 3270 3680 3386 3661 
L 3386 4045 
C 3277 4026 3181 4019 2957 4019 
L 2112 4019 
z
M 589 5030 
C 800 4742 915 4538 1050 4192 
L 1395 4333 
C 1248 4666 1133 4864 915 5178 
L 589 5030 
z
M 2931 5197 
C 2790 4832 2650 4589 2400 4282 
L 2720 4122 
C 2944 4410 3059 4608 3277 5037 
L 2931 5197 
z
" transform="scale(0.015625)"/>
       <path id="HiraginoSansGB-W3-603b" d="M 678 -218 
C 1088 339 1248 678 1466 1414 
L 1094 1555 
C 1018 1222 966 1082 813 774 
C 653 454 582 346 333 38 
L 678 -218 
z
M 1990 1613 
C 2022 1389 2029 1280 2029 1024 
L 2029 256 
C 2029 -58 2093 -160 2330 -243 
C 2483 -294 2822 -320 3277 -320 
C 3405 -320 3827 -301 4013 -288 
C 4288 -269 4410 -237 4518 -147 
C 4678 -19 4730 154 4794 800 
C 4595 851 4531 877 4390 954 
C 4371 435 4333 243 4237 173 
C 4115 83 3891 64 3078 64 
C 2822 64 2624 83 2547 109 
C 2458 141 2432 192 2432 333 
L 2432 1024 
C 2432 1325 2438 1414 2470 1613 
L 1990 1613 
z
M 6112 102 
C 5779 762 5587 1069 5178 1606 
L 4845 1434 
C 5280 864 5408 640 5747 -147 
L 6112 102 
z
M 1210 2739 
C 1210 2573 1197 2419 1178 2234 
C 1312 2253 1427 2259 1619 2259 
L 4851 2259 
C 5050 2259 5146 2253 5299 2234 
C 5274 2419 5267 2560 5267 2733 
L 5267 3558 
C 5267 3789 5274 3904 5299 4058 
C 5146 4038 5050 4032 4838 4032 
L 4134 4032 
C 4371 4352 4563 4659 4832 5184 
L 4403 5338 
C 4218 4832 4090 4602 3693 4032 
L 1638 4032 
C 1434 4032 1331 4038 1178 4058 
C 1203 3904 1210 3782 1210 3558 
L 1210 2739 
z
M 1626 3674 
L 4851 3674 
L 4851 2618 
L 1626 2618 
L 1626 3674 
z
M 2630 4326 
C 2406 4736 2336 4832 1952 5312 
L 1581 5126 
C 1939 4723 2054 4550 2259 4134 
L 2630 4326 
z
M 4013 1350 
C 3558 1722 3309 1888 2899 2125 
L 2656 1856 
C 3072 1626 3341 1421 3757 1030 
L 4013 1350 
z
" transform="scale(0.015625)"/>
       <path id="HiraginoSansGB-W3-8d44" d="M 3731 4461 
C 3654 4102 3507 3866 3251 3648 
C 2938 3386 2554 3238 1952 3155 
C 2042 3002 2074 2938 2125 2790 
C 2208 2816 2272 2829 2310 2842 
C 2490 2893 2611 2931 2630 2938 
C 2848 3002 3040 3091 3219 3200 
C 3590 3430 3821 3699 3962 4064 
C 4179 3635 4390 3398 4749 3168 
C 5062 2970 5408 2835 5933 2707 
C 5997 2893 6042 2989 6125 3110 
C 5466 3206 5005 3379 4698 3642 
C 4410 3885 4224 4160 4147 4461 
L 5350 4461 
C 5203 4256 5056 4122 4800 3962 
C 4941 3910 5037 3859 5152 3776 
C 5421 3981 5555 4122 5747 4390 
C 5818 4486 5818 4493 5837 4512 
C 5882 4576 5882 4576 5907 4608 
L 5658 4819 
C 5530 4794 5446 4787 5229 4787 
L 3123 4787 
C 3232 4941 3277 5018 3405 5248 
L 3014 5376 
C 2829 4883 2522 4506 2003 4134 
C 2144 4038 2195 4000 2285 3878 
C 2534 4070 2739 4269 2893 4461 
L 3731 4461 
z
M 2035 3904 
C 1382 3610 915 3456 333 3341 
L 486 2912 
C 595 2950 595 2950 710 3002 
C 838 3053 838 3053 1050 3123 
C 1344 3226 1747 3392 2144 3558 
L 2035 3904 
z
M 1645 538 
C 1626 691 1606 1018 1606 1248 
L 1606 2304 
L 4774 2304 
L 4774 1248 
C 4774 934 4762 774 4730 538 
L 5222 538 
C 5197 710 5190 896 5190 1248 
L 5190 2054 
C 5190 2336 5197 2547 5216 2688 
C 5037 2669 4800 2662 4493 2662 
L 1894 2662 
C 1581 2662 1363 2669 1184 2688 
C 1197 2515 1203 2413 1203 2080 
L 1203 1248 
C 1203 954 1190 730 1158 538 
L 1645 538 
z
M 1958 4646 
C 1613 4870 1325 5024 832 5229 
L 608 4934 
C 1005 4781 1267 4640 1747 4320 
L 1958 4646 
z
M 2957 2080 
C 2976 1946 2982 1875 2982 1741 
C 2982 1402 2957 1146 2899 979 
C 2790 646 2554 416 2150 250 
C 1658 51 1120 -38 403 -51 
C 506 -218 550 -314 602 -454 
C 947 -416 1133 -390 1171 -390 
C 1606 -314 1875 -250 2176 -134 
C 2637 38 2931 237 3110 506 
C 3296 781 3360 1062 3379 1638 
C 3392 1952 3392 1952 3405 2080 
L 2957 2080 
z
M 3443 416 
C 4710 -6 4787 -38 5818 -486 
L 6016 -115 
C 5139 237 4762 371 3622 742 
L 3443 416 
z
" transform="scale(0.015625)"/>
       <path id="HiraginoSansGB-W3-4ea7" d="M 3501 4800 
C 3456 4870 3456 4870 3450 4883 
C 3213 5280 3213 5280 3098 5434 
L 2746 5229 
C 2842 5107 2842 5107 3027 4800 
L 1370 4800 
C 1062 4800 890 4813 717 4838 
L 717 4422 
C 915 4442 1062 4448 1363 4448 
L 1990 4448 
C 2131 4134 2170 4006 2323 3373 
L 1542 3373 
C 1152 3373 1011 3379 838 3405 
C 858 3206 864 3072 864 2822 
C 864 2010 819 1472 717 954 
C 621 486 499 205 230 -192 
C 371 -294 422 -352 544 -518 
C 864 -26 992 301 1114 902 
C 1229 1491 1261 1850 1267 3014 
L 5146 3014 
C 5549 3014 5722 3008 5933 2982 
L 5933 3411 
C 5715 3386 5523 3373 5152 3373 
L 4282 3373 
C 4410 3622 4474 3776 4602 4186 
C 4646 4314 4659 4365 4691 4448 
L 5197 4448 
C 5498 4448 5658 4442 5875 4422 
L 5875 4838 
C 5683 4813 5504 4800 5197 4800 
L 3501 4800 
z
M 2746 3373 
C 2694 3539 2669 3622 2598 3872 
C 2515 4192 2477 4307 2413 4448 
L 4250 4448 
C 4224 4365 4211 4333 4154 4134 
C 4026 3706 3974 3571 3866 3373 
L 2746 3373 
z
" transform="scale(0.015625)"/>
      </defs>
      <use xlink:href="#HiraginoSansGB-W3-5bf9"/>
      <use xlink:href="#HiraginoSansGB-W3-6570" transform="translate(99.999985 0)"/>
      <use xlink:href="#HiraginoSansGB-W3-603b" transform="translate(199.999969 0)"/>
      <use xlink:href="#HiraginoSansGB-W3-8d44" transform="translate(299.999954 0)"/>
      <use xlink:href="#HiraginoSansGB-W3-4ea7" transform="translate(399.999939 0)"/>
     </g>
    </g>
   </g>
   <g id="matplotlib.axis_2">
    <g id="ytick_1">
     <g id="line2d_8">
      <path d="M 54.065 244.15125 
L 388.865 244.15125 
" clip-path="url(#p6d71c5ebe6)" style="fill: none; stroke: #ffffff; stroke-linecap: round"/>
     </g>
     <g id="text_9">
      <!-- 0 -->
      <g style="fill: #262626" transform="translate(37.337656 248.363906) scale(0.11 -0.11)">
       <use xlink:href="#HiraginoSansGB-W3-30"/>
      </g>
     </g>
    </g>
    <g id="ytick_2">
     <g id="line2d_9">
      <path d="M 54.065 219.478353 
L 388.865 219.478353 
" clip-path="url(#p6d71c5ebe6)" style="fill: none; stroke: #ffffff; stroke-linecap: round"/>
     </g>
     <g id="text_10">
      <!-- 50 -->
      <g style="fill: #262626" transform="translate(30.110313 223.691009) scale(0.11 -0.11)">
       <defs>
        <path id="HiraginoSansGB-W3-35" d="M 1261 4461 
L 2765 4461 
C 3066 4461 3270 4448 3514 4410 
L 3514 4954 
C 3258 4915 3110 4902 2765 4902 
L 1446 4902 
C 1069 4902 966 4909 768 4934 
C 781 4774 781 4749 781 4659 
C 781 4538 774 4461 762 4275 
L 621 2829 
C 595 2554 576 2419 525 2170 
L 1005 2125 
C 1075 2298 1146 2387 1299 2509 
C 1530 2688 1811 2778 2138 2778 
C 2816 2778 3258 2317 3258 1613 
C 3258 877 2778 390 2061 390 
C 1690 390 1370 525 1152 768 
C 1056 877 1011 960 947 1139 
L 422 986 
C 576 678 666 544 826 384 
C 1133 96 1549 -51 2048 -51 
C 3104 -51 3776 608 3776 1638 
C 3776 2112 3635 2490 3347 2765 
C 3059 3046 2662 3200 2195 3200 
C 1754 3200 1382 3053 1075 2758 
C 1114 2931 1114 2931 1126 3046 
L 1261 4461 
z
" transform="scale(0.015625)"/>
       </defs>
       <use xlink:href="#HiraginoSansGB-W3-35"/>
       <use xlink:href="#HiraginoSansGB-W3-30" transform="translate(65.699997 0)"/>
      </g>
     </g>
    </g>
    <g id="ytick_3">
     <g id="line2d_10">
      <path d="M 54.065 194.805456 
L 388.865 194.805456 
" clip-path="url(#p6d71c5ebe6)" style="fill: none; stroke: #ffffff; stroke-linecap: round"/>
     </g>
     <g id="text_11">
      <!-- 100 -->
      <g style="fill: #262626" transform="translate(22.882969 199.018112) scale(0.11 -0.11)">
       <use xlink:href="#HiraginoSansGB-W3-31"/>
       <use xlink:href="#HiraginoSansGB-W3-30" transform="translate(65.699997 0)"/>
       <use xlink:href="#HiraginoSansGB-W3-30" transform="translate(131.399994 0)"/>
      </g>
     </g>
    </g>
    <g id="ytick_4">
     <g id="line2d_11">
      <path d="M 54.065 170.132558 
L 388.865 170.132558 
" clip-path="url(#p6d71c5ebe6)" style="fill: none; stroke: #ffffff; stroke-linecap: round"/>
     </g>
     <g id="text_12">
      <!-- 150 -->
      <g style="fill: #262626" transform="translate(22.882969 174.345215) scale(0.11 -0.11)">
       <use xlink:href="#HiraginoSansGB-W3-31"/>
       <use xlink:href="#HiraginoSansGB-W3-35" transform="translate(65.699997 0)"/>
       <use xlink:href="#HiraginoSansGB-W3-30" transform="translate(131.399994 0)"/>
      </g>
     </g>
    </g>
    <g id="ytick_5">
     <g id="line2d_12">
      <path d="M 54.065 145.459661 
L 388.865 145.459661 
" clip-path="url(#p6d71c5ebe6)" style="fill: none; stroke: #ffffff; stroke-linecap: round"/>
     </g>
     <g id="text_13">
      <!-- 200 -->
      <g style="fill: #262626" transform="translate(22.882969 149.672317) scale(0.11 -0.11)">
       <use xlink:href="#HiraginoSansGB-W3-32"/>
       <use xlink:href="#HiraginoSansGB-W3-30" transform="translate(65.699997 0)"/>
       <use xlink:href="#HiraginoSansGB-W3-30" transform="translate(131.399994 0)"/>
      </g>
     </g>
    </g>
    <g id="ytick_6">
     <g id="line2d_13">
      <path d="M 54.065 120.786764 
L 388.865 120.786764 
" clip-path="url(#p6d71c5ebe6)" style="fill: none; stroke: #ffffff; stroke-linecap: round"/>
     </g>
     <g id="text_14">
      <!-- 250 -->
      <g style="fill: #262626" transform="translate(22.882969 124.99942) scale(0.11 -0.11)">
       <use xlink:href="#HiraginoSansGB-W3-32"/>
       <use xlink:href="#HiraginoSansGB-W3-35" transform="translate(65.699997 0)"/>
       <use xlink:href="#HiraginoSansGB-W3-30" transform="translate(131.399994 0)"/>
      </g>
     </g>
    </g>
    <g id="ytick_7">
     <g id="line2d_14">
      <path d="M 54.065 96.113867 
L 388.865 96.113867 
" clip-path="url(#p6d71c5ebe6)" style="fill: none; stroke: #ffffff; stroke-linecap: round"/>
     </g>
     <g id="text_15">
      <!-- 300 -->
      <g style="fill: #262626" transform="translate(22.882969 100.326523) scale(0.11 -0.11)">
       <use xlink:href="#HiraginoSansGB-W3-33"/>
       <use xlink:href="#HiraginoSansGB-W3-30" transform="translate(65.699997 0)"/>
       <use xlink:href="#HiraginoSansGB-W3-30" transform="translate(131.399994 0)"/>
      </g>
     </g>
    </g>
    <g id="ytick_8">
     <g id="line2d_15">
      <path d="M 54.065 71.44097 
L 388.865 71.44097 
" clip-path="url(#p6d71c5ebe6)" style="fill: none; stroke: #ffffff; stroke-linecap: round"/>
     </g>
     <g id="text_16">
      <!-- 350 -->
      <g style="fill: #262626" transform="translate(22.882969 75.653626) scale(0.11 -0.11)">
       <use xlink:href="#HiraginoSansGB-W3-33"/>
       <use xlink:href="#HiraginoSansGB-W3-35" transform="translate(65.699997 0)"/>
       <use xlink:href="#HiraginoSansGB-W3-30" transform="translate(131.399994 0)"/>
      </g>
     </g>
    </g>
    <g id="ytick_9">
     <g id="line2d_16">
      <path d="M 54.065 46.768072 
L 388.865 46.768072 
" clip-path="url(#p6d71c5ebe6)" style="fill: none; stroke: #ffffff; stroke-linecap: round"/>
     </g>
     <g id="text_17">
      <!-- 400 -->
      <g style="fill: #262626" transform="translate(22.84 50.980729) scale(0.11 -0.11)">
       <use xlink:href="#HiraginoSansGB-W3-34"/>
       <use xlink:href="#HiraginoSansGB-W3-30" transform="translate(66.099991 0)"/>
       <use xlink:href="#HiraginoSansGB-W3-30" transform="translate(131.799988 0)"/>
      </g>
     </g>
    </g>
    <g id="text_18">
     <!-- Count -->
     <g style="fill: #262626" transform="translate(16.39125 151.324688) rotate(-90) scale(0.12 -0.12)">
      <defs>
       <path id="HiraginoSansGB-W3-43" d="M 4461 3667 
C 4307 4064 4186 4256 3962 4474 
C 3616 4819 3130 4992 2528 4992 
C 1920 4992 1434 4806 1062 4448 
C 589 3981 333 3283 333 2458 
C 333 1658 576 960 1024 512 
C 1389 141 1907 -51 2522 -51 
C 3238 -51 3821 211 4179 691 
C 4333 896 4416 1075 4525 1453 
L 3994 1581 
C 3936 1286 3872 1126 3738 941 
C 3475 595 3046 403 2541 403 
C 1510 403 851 1210 851 2477 
C 851 3750 1504 4544 2541 4544 
C 3008 4544 3392 4384 3648 4083 
C 3782 3930 3853 3795 3949 3520 
L 4461 3667 
z
" transform="scale(0.015625)"/>
       <path id="HiraginoSansGB-W3-6f" d="M 2010 -45 
C 3040 -45 3706 672 3706 1766 
C 3706 2867 3046 3571 2003 3571 
C 960 3571 294 2867 294 1760 
C 294 653 960 -45 2010 -45 
z
M 2016 3168 
C 2752 3168 3213 2630 3213 1766 
C 3213 902 2752 371 2003 371 
C 1254 371 787 902 787 1773 
C 787 2637 1254 3168 2016 3168 
z
" transform="scale(0.015625)"/>
       <path id="HiraginoSansGB-W3-75" d="M 2970 38 
L 3501 38 
C 3462 294 3450 474 3450 762 
L 3450 2765 
C 3450 3059 3462 3264 3494 3488 
L 2925 3488 
C 2957 3264 2970 3040 2970 2765 
L 2970 1530 
C 2912 1274 2842 1114 2675 890 
C 2419 544 2118 384 1754 384 
C 1254 384 979 704 979 1274 
L 979 2765 
C 979 3046 992 3264 1024 3488 
L 448 3488 
C 480 3283 493 3059 493 2771 
L 493 1190 
C 493 883 557 634 672 448 
C 877 141 1235 -26 1696 -26 
C 2272 -26 2669 211 2989 736 
C 2970 570 2970 525 2970 454 
L 2970 38 
z
" transform="scale(0.015625)"/>
       <path id="HiraginoSansGB-W3-6e" d="M 1030 38 
C 998 288 986 480 986 762 
L 986 1997 
C 1037 2253 1114 2413 1280 2630 
C 1549 2976 1837 3136 2195 3136 
C 2701 3136 2976 2829 2976 2253 
L 2976 762 
C 2976 480 2963 288 2931 38 
L 3507 38 
C 3475 250 3462 429 3462 755 
L 3462 2336 
C 3462 2650 3405 2886 3283 3072 
C 3078 3386 2720 3552 2259 3552 
C 1683 3552 1267 3302 966 2778 
C 986 2925 986 2976 986 3053 
L 986 3488 
L 454 3488 
C 493 3232 506 3053 506 2765 
L 506 762 
C 506 454 493 282 454 38 
L 1030 38 
z
" transform="scale(0.015625)"/>
       <path id="HiraginoSansGB-W3-74" d="M 858 4442 
C 890 4230 902 3987 902 3731 
L 902 3488 
L 646 3488 
C 378 3488 250 3494 70 3526 
L 70 3040 
C 282 3066 429 3078 646 3078 
L 902 3078 
L 902 787 
C 902 486 954 301 1082 173 
C 1210 45 1427 -26 1709 -26 
C 1971 -26 2170 13 2432 122 
L 2291 570 
C 2080 442 1952 403 1786 403 
C 1651 403 1542 442 1472 512 
C 1414 570 1389 666 1389 851 
L 1389 3078 
L 1696 3078 
C 1984 3078 2144 3072 2349 3040 
L 2349 3526 
C 2125 3494 1990 3488 1696 3488 
L 1389 3488 
L 1389 3731 
C 1389 4006 1402 4237 1434 4442 
L 858 4442 
z
" transform="scale(0.015625)"/>
      </defs>
      <use xlink:href="#HiraginoSansGB-W3-43"/>
      <use xlink:href="#HiraginoSansGB-W3-6f" transform="translate(75.599991 0)"/>
      <use xlink:href="#HiraginoSansGB-W3-75" transform="translate(138.099976 0)"/>
      <use xlink:href="#HiraginoSansGB-W3-6e" transform="translate(199.899963 0)"/>
      <use xlink:href="#HiraginoSansGB-W3-74" transform="translate(261.699951 0)"/>
     </g>
    </g>
   </g>
   <g id="patch_3">
    <path d="M 69.283182 244.15125 
L 79.428636 244.15125 
L 79.428636 243.164334 
L 69.283182 243.164334 
z
" clip-path="url(#p6d71c5ebe6)" style="fill: #4c72b0; fill-opacity: 0.5; stroke: #ffffff; stroke-linejoin: miter"/>
   </g>
   <g id="patch_4">
    <path d="M 79.428636 244.15125 
L 89.574091 244.15125 
L 89.574091 242.177418 
L 79.428636 242.177418 
z
" clip-path="url(#p6d71c5ebe6)" style="fill: #4c72b0; fill-opacity: 0.5; stroke: #ffffff; stroke-linejoin: miter"/>
   </g>
   <g id="patch_5">
    <path d="M 89.574091 244.15125 
L 99.719545 244.15125 
L 99.719545 242.670876 
L 89.574091 242.670876 
z
" clip-path="url(#p6d71c5ebe6)" style="fill: #4c72b0; fill-opacity: 0.5; stroke: #ffffff; stroke-linejoin: miter"/>
   </g>
   <g id="patch_6">
    <path d="M 99.719545 244.15125 
L 109.865 244.15125 
L 109.865 240.203586 
L 99.719545 240.203586 
z
" clip-path="url(#p6d71c5ebe6)" style="fill: #4c72b0; fill-opacity: 0.5; stroke: #ffffff; stroke-linejoin: miter"/>
   </g>
   <g id="patch_7">
    <path d="M 109.865 244.15125 
L 120.010455 244.15125 
L 120.010455 223.919474 
L 109.865 223.919474 
z
" clip-path="url(#p6d71c5ebe6)" style="fill: #4c72b0; fill-opacity: 0.5; stroke: #ffffff; stroke-linejoin: miter"/>
   </g>
   <g id="patch_8">
    <path d="M 120.010455 244.15125 
L 130.155909 244.15125 
L 130.155909 211.089568 
L 120.010455 211.089568 
z
" clip-path="url(#p6d71c5ebe6)" style="fill: #4c72b0; fill-opacity: 0.5; stroke: #ffffff; stroke-linejoin: miter"/>
   </g>
   <g id="patch_9">
    <path d="M 130.155909 244.15125 
L 140.301364 244.15125 
L 140.301364 142.498914 
L 130.155909 142.498914 
z
" clip-path="url(#p6d71c5ebe6)" style="fill: #4c72b0; fill-opacity: 0.5; stroke: #ffffff; stroke-linejoin: miter"/>
   </g>
   <g id="patch_10">
    <path d="M 140.301364 244.15125 
L 150.446818 244.15125 
L 150.446818 86.244708 
L 140.301364 86.244708 
z
" clip-path="url(#p6d71c5ebe6)" style="fill: #4c72b0; fill-opacity: 0.5; stroke: #ffffff; stroke-linejoin: miter"/>
   </g>
   <g id="patch_11">
    <path d="M 150.446818 244.15125 
L 160.592273 244.15125 
L 160.592273 32.95125 
L 150.446818 32.95125 
z
" clip-path="url(#p6d71c5ebe6)" style="fill: #4c72b0; fill-opacity: 0.5; stroke: #ffffff; stroke-linejoin: miter"/>
   </g>
   <g id="patch_12">
    <path d="M 160.592273 244.15125 
L 170.737727 244.15125 
L 170.737727 42.326951 
L 160.592273 42.326951 
z
" clip-path="url(#p6d71c5ebe6)" style="fill: #4c72b0; fill-opacity: 0.5; stroke: #ffffff; stroke-linejoin: miter"/>
   </g>
   <g id="patch_13">
    <path d="M 170.737727 244.15125 
L 180.883182 244.15125 
L 180.883182 51.702652 
L 170.737727 51.702652 
z
" clip-path="url(#p6d71c5ebe6)" style="fill: #4c72b0; fill-opacity: 0.5; stroke: #ffffff; stroke-linejoin: miter"/>
   </g>
   <g id="patch_14">
    <path d="M 180.883182 244.15125 
L 191.028636 244.15125 
L 191.028636 100.06153 
L 180.883182 100.06153 
z
" clip-path="url(#p6d71c5ebe6)" style="fill: #4c72b0; fill-opacity: 0.5; stroke: #ffffff; stroke-linejoin: miter"/>
   </g>
   <g id="patch_15">
    <path d="M 191.028636 244.15125 
L 201.174091 244.15125 
L 201.174091 140.525082 
L 191.028636 140.525082 
z
" clip-path="url(#p6d71c5ebe6)" style="fill: #4c72b0; fill-opacity: 0.5; stroke: #ffffff; stroke-linejoin: miter"/>
   </g>
   <g id="patch_16">
    <path d="M 201.174091 244.15125 
L 211.319545 244.15125 
L 211.319545 162.730689 
L 201.174091 162.730689 
z
" clip-path="url(#p6d71c5ebe6)" style="fill: #4c72b0; fill-opacity: 0.5; stroke: #ffffff; stroke-linejoin: miter"/>
   </g>
   <g id="patch_17">
    <path d="M 211.319545 244.15125 
L 221.465 244.15125 
L 221.465 184.936297 
L 211.319545 184.936297 
z
" clip-path="url(#p6d71c5ebe6)" style="fill: #4c72b0; fill-opacity: 0.5; stroke: #ffffff; stroke-linejoin: miter"/>
   </g>
   <g id="patch_18">
    <path d="M 221.465 244.15125 
L 231.610455 244.15125 
L 231.610455 200.233493 
L 221.465 200.233493 
z
" clip-path="url(#p6d71c5ebe6)" style="fill: #4c72b0; fill-opacity: 0.5; stroke: #ffffff; stroke-linejoin: miter"/>
   </g>
   <g id="patch_19">
    <path d="M 231.610455 244.15125 
L 241.755909 244.15125 
L 241.755909 219.971811 
L 231.610455 219.971811 
z
" clip-path="url(#p6d71c5ebe6)" style="fill: #4c72b0; fill-opacity: 0.5; stroke: #ffffff; stroke-linejoin: miter"/>
   </g>
   <g id="patch_20">
    <path d="M 241.755909 244.15125 
L 251.901364 244.15125 
L 251.901364 221.452185 
L 241.755909 221.452185 
z
" clip-path="url(#p6d71c5ebe6)" style="fill: #4c72b0; fill-opacity: 0.5; stroke: #ffffff; stroke-linejoin: miter"/>
   </g>
   <g id="patch_21">
    <path d="M 251.901364 244.15125 
L 262.046818 244.15125 
L 262.046818 229.347512 
L 251.901364 229.347512 
z
" clip-path="url(#p6d71c5ebe6)" style="fill: #4c72b0; fill-opacity: 0.5; stroke: #ffffff; stroke-linejoin: miter"/>
   </g>
   <g id="patch_22">
    <path d="M 262.046818 244.15125 
L 272.192273 244.15125 
L 272.192273 229.347512 
L 262.046818 229.347512 
z
" clip-path="url(#p6d71c5ebe6)" style="fill: #4c72b0; fill-opacity: 0.5; stroke: #ffffff; stroke-linejoin: miter"/>
   </g>
   <g id="patch_23">
    <path d="M 272.192273 244.15125 
L 282.337727 244.15125 
L 282.337727 237.736297 
L 272.192273 237.736297 
z
" clip-path="url(#p6d71c5ebe6)" style="fill: #4c72b0; fill-opacity: 0.5; stroke: #ffffff; stroke-linejoin: miter"/>
   </g>
   <g id="patch_24">
    <path d="M 282.337727 244.15125 
L 292.483182 244.15125 
L 292.483182 240.697044 
L 282.337727 240.697044 
z
" clip-path="url(#p6d71c5ebe6)" style="fill: #4c72b0; fill-opacity: 0.5; stroke: #ffffff; stroke-linejoin: miter"/>
   </g>
   <g id="patch_25">
    <path d="M 292.483182 244.15125 
L 302.628636 244.15125 
L 302.628636 240.203586 
L 292.483182 240.203586 
z
" clip-path="url(#p6d71c5ebe6)" style="fill: #4c72b0; fill-opacity: 0.5; stroke: #ffffff; stroke-linejoin: miter"/>
   </g>
   <g id="patch_26">
    <path d="M 302.628636 244.15125 
L 312.774091 244.15125 
L 312.774091 241.68396 
L 302.628636 241.68396 
z
" clip-path="url(#p6d71c5ebe6)" style="fill: #4c72b0; fill-opacity: 0.5; stroke: #ffffff; stroke-linejoin: miter"/>
   </g>
   <g id="patch_27">
    <path d="M 312.774091 244.15125 
L 322.919545 244.15125 
L 322.919545 242.670876 
L 312.774091 242.670876 
z
" clip-path="url(#p6d71c5ebe6)" style="fill: #4c72b0; fill-opacity: 0.5; stroke: #ffffff; stroke-linejoin: miter"/>
   </g>
   <g id="patch_28">
    <path d="M 322.919545 244.15125 
L 333.065 244.15125 
L 333.065 242.670876 
L 322.919545 242.670876 
z
" clip-path="url(#p6d71c5ebe6)" style="fill: #4c72b0; fill-opacity: 0.5; stroke: #ffffff; stroke-linejoin: miter"/>
   </g>
   <g id="patch_29">
    <path d="M 333.065 244.15125 
L 343.210455 244.15125 
L 343.210455 242.177418 
L 333.065 242.177418 
z
" clip-path="url(#p6d71c5ebe6)" style="fill: #4c72b0; fill-opacity: 0.5; stroke: #ffffff; stroke-linejoin: miter"/>
   </g>
   <g id="patch_30">
    <path d="M 343.210455 244.15125 
L 353.355909 244.15125 
L 353.355909 243.164334 
L 343.210455 243.164334 
z
" clip-path="url(#p6d71c5ebe6)" style="fill: #4c72b0; fill-opacity: 0.5; stroke: #ffffff; stroke-linejoin: miter"/>
   </g>
   <g id="patch_31">
    <path d="M 353.355909 244.15125 
L 363.501364 244.15125 
L 363.501364 244.15125 
L 353.355909 244.15125 
z
" clip-path="url(#p6d71c5ebe6)" style="fill: #4c72b0; fill-opacity: 0.5; stroke: #ffffff; stroke-linejoin: miter"/>
   </g>
   <g id="patch_32">
    <path d="M 363.501364 244.15125 
L 373.646818 244.15125 
L 373.646818 242.177418 
L 363.501364 242.177418 
z
" clip-path="url(#p6d71c5ebe6)" style="fill: #4c72b0; fill-opacity: 0.5; stroke: #ffffff; stroke-linejoin: miter"/>
   </g>
   <g id="line2d_17">
    <path d="M 69.283182 243.562854 
L 83.048371 242.723138 
L 89.166233 242.374079 
L 92.225164 242.031825 
L 95.284095 241.497361 
L 98.343026 240.70586 
L 101.401958 239.535988 
L 102.931423 238.746086 
L 104.460889 237.77723 
L 105.990354 236.598595 
L 107.51982 235.186179 
L 109.049285 233.527103 
L 110.578751 231.621365 
L 112.108216 229.479791 
L 113.637682 227.117819 
L 116.696613 221.75793 
L 118.226078 218.721523 
L 119.755544 215.37108 
L 121.285009 211.608279 
L 122.814475 207.310432 
L 124.34394 202.347106 
L 125.873406 196.602894 
L 127.402871 190.002266 
L 128.932337 182.531088 
L 130.461802 174.249244 
L 133.520733 155.846612 
L 139.638595 117.547668 
L 142.697526 100.153477 
L 145.756457 84.346109 
L 148.815388 70.13009 
L 150.344854 63.741868 
L 151.874319 57.96499 
L 153.403785 52.914007 
L 154.93325 48.68885 
L 156.462716 45.354325 
L 157.992181 42.928109 
L 159.521647 41.380054 
L 161.051112 40.642273 
L 162.580578 40.626493 
L 164.110043 41.24344 
L 165.639509 42.41888 
L 167.168974 44.10239 
L 168.69844 46.267349 
L 170.227905 48.903289 
L 171.757371 52.003851 
L 173.286836 55.554569 
L 174.816302 59.524468 
L 177.875233 68.510383 
L 180.934164 78.467572 
L 183.993095 89.031762 
L 187.052026 100.153515 
L 191.640423 117.899927 
L 196.228819 135.549737 
L 199.28775 145.938033 
L 200.817216 150.521959 
L 202.346681 154.6968 
L 203.876147 158.501788 
L 206.935078 165.246001 
L 209.994009 171.266295 
L 216.111871 182.585559 
L 225.288664 199.236055 
L 228.347595 204.474424 
L 231.406526 209.243482 
L 232.935991 211.369065 
L 234.465457 213.28814 
L 235.994922 214.990504 
L 237.524388 216.481302 
L 239.053853 217.780431 
L 242.112784 219.935797 
L 246.701181 222.608153 
L 252.819043 225.889351 
L 255.877974 227.308141 
L 258.936905 228.49351 
L 266.584233 231.155643 
L 269.643164 232.483019 
L 274.23156 234.820489 
L 278.819957 237.185176 
L 281.878888 238.493414 
L 284.937819 239.438018 
L 287.99675 239.995179 
L 291.055681 240.246091 
L 300.232474 240.626204 
L 304.82087 241.126208 
L 315.527129 242.436943 
L 320.115525 242.731109 
L 324.703922 242.80183 
L 330.821784 242.673622 
L 339.998577 242.42167 
L 343.057508 242.528789 
L 347.645905 242.941195 
L 353.763767 243.52999 
L 356.822698 243.634643 
L 361.411094 243.491332 
L 369.058422 243.101238 
L 372.117353 243.1553 
L 373.646818 243.236754 
L 373.646818 243.236754 
" clip-path="url(#p6d71c5ebe6)" style="fill: none; stroke: #4c72b0; stroke-width: 1.5; stroke-linecap: round"/>
   </g>
   <g id="patch_33">
    <path d="M 54.065 244.15125 
L 54.065 22.39125 
" style="fill: none; stroke: #ffffff; stroke-width: 1.25; stroke-linejoin: miter; stroke-linecap: square"/>
   </g>
   <g id="patch_34">
    <path d="M 388.865 244.15125 
L 388.865 22.39125 
" style="fill: none; stroke: #ffffff; stroke-width: 1.25; stroke-linejoin: miter; stroke-linecap: square"/>
   </g>
   <g id="patch_35">
    <path d="M 54.065 244.15125 
L 388.865 244.15125 
" style="fill: none; stroke: #ffffff; stroke-width: 1.25; stroke-linejoin: miter; stroke-linecap: square"/>
   </g>
   <g id="patch_36">
    <path d="M 54.065 22.39125 
L 388.865 22.39125 
" style="fill: none; stroke: #ffffff; stroke-width: 1.25; stroke-linejoin: miter; stroke-linecap: square"/>
   </g>
   <g id="text_19">
    <!-- 上市公司总资产的对数分布 -->
    <g style="fill: #262626" transform="translate(149.465 16.39125) scale(0.12 -0.12)">
     <defs>
      <path id="HiraginoSansGB-W3-4e0a" d="M 3290 3251 
L 3290 4563 
C 3290 4806 3302 5011 3334 5229 
L 2790 5229 
C 2822 5005 2835 4806 2835 4563 
L 2835 243 
L 1120 243 
C 800 243 576 256 365 282 
L 365 -205 
C 608 -173 845 -160 1120 -160 
L 5382 -160 
C 5658 -160 5856 -173 6099 -205 
L 6099 282 
C 5882 256 5683 243 5382 243 
L 3290 243 
L 3290 2835 
L 4909 2835 
C 5184 2835 5376 2822 5574 2797 
L 5574 3290 
C 5389 3264 5184 3251 4909 3251 
L 3290 3251 
z
" transform="scale(0.015625)"/>
      <path id="HiraginoSansGB-W3-5e02" d="M 3328 2765 
L 5005 2765 
L 5005 838 
C 5005 698 4954 659 4749 659 
C 4544 659 4301 678 4000 723 
C 4064 570 4090 461 4109 294 
C 4403 275 4506 269 4768 269 
C 5299 269 5427 371 5427 794 
L 5427 2637 
C 5427 2848 5434 2995 5453 3155 
C 5261 3136 5101 3130 4845 3130 
L 3328 3130 
L 3328 4013 
L 5350 4013 
C 5722 4013 5907 4000 6074 3974 
L 6074 4435 
C 5882 4403 5658 4390 5344 4390 
L 3443 4390 
C 3162 4896 3162 4896 2886 5318 
L 2528 5139 
C 2701 4909 2829 4698 2963 4435 
C 2976 4410 2976 4410 2982 4390 
L 1082 4390 
C 787 4390 576 4403 365 4435 
L 365 3974 
C 550 4000 762 4013 1082 4013 
L 2912 4013 
L 2912 3130 
L 1555 3130 
C 1293 3130 1126 3136 941 3155 
C 960 2989 966 2829 966 2630 
L 966 838 
C 966 550 954 352 928 147 
L 1434 147 
C 1408 333 1395 544 1395 838 
L 1395 2765 
L 2912 2765 
L 2912 218 
C 2912 -32 2899 -237 2867 -480 
L 3373 -480 
C 3341 -262 3328 -45 3328 218 
L 3328 2765 
z
" transform="scale(0.015625)"/>
      <path id="HiraginoSansGB-W3-516c" d="M 902 -147 
C 947 -134 1120 -115 1242 -109 
C 2938 -19 4122 90 4928 218 
C 5037 26 5094 -83 5261 -416 
L 5645 -166 
C 5222 614 4710 1370 4070 2157 
L 3725 1939 
C 4096 1491 4352 1146 4531 864 
C 4672 640 4672 640 4723 563 
C 4026 448 3046 371 1491 314 
C 2054 1056 2093 1114 2374 1562 
C 2630 1984 2963 2592 3155 2982 
C 3206 3091 3219 3117 3270 3181 
L 2784 3360 
C 2778 3315 2778 3315 2694 3091 
C 2598 2822 2458 2515 2234 2112 
C 1920 1530 1421 787 1107 429 
C 1024 365 966 346 813 320 
L 902 -147 
z
M 2246 5152 
C 2214 4941 2106 4685 1869 4301 
C 1472 3635 973 3123 211 2611 
C 346 2496 422 2406 518 2253 
C 1427 2938 2067 3699 2547 4659 
C 2650 4877 2669 4909 2726 4986 
L 2246 5152 
z
M 3642 5107 
C 3680 5043 3699 5005 3744 4922 
C 4365 3680 4838 3091 5914 2234 
C 6003 2400 6074 2490 6214 2630 
C 5574 3078 5171 3456 4800 3949 
C 4448 4403 4166 4915 4070 5267 
L 3642 5107 
z
" transform="scale(0.015625)"/>
      <path id="HiraginoSansGB-W3-53f8" d="M 5645 4474 
C 5645 4730 5651 4851 5670 5050 
C 5491 5030 5318 5024 5050 5024 
L 1658 5024 
C 1312 5024 1139 5037 941 5069 
L 941 4602 
C 1139 4634 1318 4646 1658 4646 
L 5235 4646 
L 5235 186 
C 5235 38 5178 -6 4992 -6 
C 4634 -6 4352 26 3942 102 
C 4000 -83 4006 -147 4026 -346 
C 4422 -384 4672 -403 4928 -403 
C 5491 -403 5645 -288 5645 147 
L 5645 4474 
z
M 544 3507 
C 736 3533 896 3546 1133 3546 
L 3898 3546 
C 4128 3546 4288 3533 4480 3507 
L 4480 3955 
C 4288 3923 4134 3917 3885 3917 
L 1133 3917 
C 890 3917 736 3923 544 3955 
L 544 3507 
z
M 3994 2349 
C 3994 2560 4000 2688 4013 2848 
C 3878 2835 3776 2829 3514 2829 
L 1491 2829 
C 1248 2829 1101 2835 941 2848 
C 960 2694 966 2541 966 2304 
L 966 864 
C 966 602 960 435 934 256 
L 1376 256 
L 1376 858 
L 3462 858 
C 3763 858 3840 858 4013 838 
C 4000 998 3994 1126 3994 1331 
L 3994 2349 
z
M 1376 2477 
L 3590 2477 
L 3590 1210 
L 1376 1210 
L 1376 2477 
z
" transform="scale(0.015625)"/>
      <path id="HiraginoSansGB-W3-7684" d="M 1651 4333 
C 1747 4544 1862 4864 1978 5210 
L 1523 5299 
C 1472 4966 1376 4646 1248 4333 
L 1120 4333 
C 800 4333 685 4339 550 4352 
C 570 4192 576 4045 576 3744 
L 576 499 
C 576 122 570 -115 544 -282 
L 973 -282 
L 973 282 
L 2221 282 
L 2221 -128 
L 2643 -128 
C 2624 26 2611 243 2611 531 
L 2611 3789 
C 2611 4019 2618 4186 2630 4352 
C 2573 4346 2387 4339 2067 4333 
L 1651 4333 
z
M 973 3981 
L 2221 3981 
L 2221 2554 
L 973 2554 
L 973 3981 
z
M 973 2202 
L 2221 2202 
L 2221 640 
L 973 640 
L 973 2202 
z
M 3846 4339 
C 3949 4595 4013 4768 4090 4992 
C 4128 5107 4160 5197 4179 5235 
L 3738 5318 
C 3725 5178 3661 4941 3571 4698 
C 3334 4045 3021 3501 2630 3085 
C 2739 3014 2854 2906 2938 2797 
C 3270 3226 3456 3520 3674 3962 
L 5517 3962 
C 5510 3021 5504 2579 5472 2067 
C 5427 1210 5344 595 5235 301 
C 5152 96 5069 38 4832 38 
C 4602 38 4314 70 3923 147 
C 3994 -13 4019 -122 4032 -307 
C 4429 -339 4614 -352 4845 -352 
C 5229 -352 5434 -237 5562 58 
C 5792 570 5875 1427 5933 3962 
C 5939 4198 5939 4250 5958 4365 
C 5830 4346 5651 4339 5395 4339 
L 3846 4339 
z
M 4742 1549 
C 4403 2234 4134 2656 3731 3142 
L 3405 2944 
C 3776 2496 4019 2093 4378 1325 
L 4742 1549 
z
" transform="scale(0.015625)"/>
      <path id="HiraginoSansGB-W3-5206" d="M 4435 2637 
C 4435 1530 4358 666 4224 275 
C 4179 147 4109 115 3917 115 
C 3661 115 3373 147 3002 218 
C 3066 32 3085 -64 3104 -237 
C 3520 -275 3718 -288 3942 -288 
C 4320 -288 4467 -230 4576 -32 
C 4742 269 4864 1350 4864 2592 
C 4870 2880 4870 2931 4890 3046 
C 4704 3021 4512 3014 4218 3014 
L 2112 3014 
C 1850 3014 1632 3027 1446 3053 
L 1446 2598 
C 1645 2624 1862 2637 2106 2637 
L 2509 2637 
C 2464 2061 2374 1722 2163 1318 
C 1856 736 1370 314 550 -83 
C 685 -211 749 -294 832 -442 
C 1613 -38 2112 397 2445 954 
C 2739 1440 2893 1965 2944 2637 
L 4435 2637 
z
M 2246 5293 
C 2214 5101 2131 4902 1971 4621 
C 1542 3853 992 3264 218 2746 
C 365 2624 448 2528 531 2400 
C 1434 3066 2054 3808 2547 4800 
C 2643 4998 2669 5050 2726 5126 
L 2246 5293 
z
M 3667 5114 
C 3699 5062 3738 4992 3770 4934 
C 4371 3757 4915 3110 5926 2362 
C 6022 2528 6106 2637 6227 2752 
C 5350 3328 4806 3904 4339 4742 
C 4205 4986 4147 5114 4096 5280 
L 3667 5114 
z
" transform="scale(0.015625)"/>
      <path id="HiraginoSansGB-W3-5e03" d="M 5312 3917 
C 5651 3917 5850 3904 6029 3878 
L 6029 4333 
C 5862 4307 5664 4294 5312 4294 
L 2848 4294 
C 2925 4493 3002 4730 3066 4947 
C 3123 5126 3136 5171 3187 5267 
L 2694 5350 
C 2656 5005 2586 4742 2413 4294 
L 1075 4294 
C 710 4294 518 4307 346 4333 
L 346 3878 
C 563 3904 768 3917 1075 3917 
L 2246 3917 
C 1798 2995 1107 2214 243 1664 
C 352 1562 448 1434 512 1312 
C 1088 1766 1248 1914 1542 2240 
L 1542 672 
C 1542 378 1530 186 1504 -13 
L 1984 -13 
C 1958 147 1952 320 1952 672 
L 1952 2342 
L 3245 2342 
L 3245 224 
C 3245 -102 3232 -346 3200 -512 
L 3699 -512 
C 3667 -352 3654 -109 3654 218 
L 3654 2342 
L 5088 2342 
L 5088 717 
C 5088 544 5024 506 4762 506 
C 4563 506 4352 525 4064 576 
C 4141 410 4166 314 4186 147 
C 4467 128 4576 122 4774 122 
C 5338 122 5498 237 5498 640 
L 5498 2214 
C 5498 2426 5504 2579 5523 2739 
C 5331 2720 5139 2707 4928 2707 
L 3654 2707 
L 3654 2835 
C 3654 3187 3661 3354 3693 3520 
L 3206 3520 
C 3232 3354 3245 3162 3245 2835 
L 3245 2707 
L 1926 2707 
C 2221 3078 2464 3482 2682 3917 
L 5312 3917 
z
" transform="scale(0.015625)"/>
     </defs>
     <use xlink:href="#HiraginoSansGB-W3-4e0a"/>
     <use xlink:href="#HiraginoSansGB-W3-5e02" transform="translate(99.999985 0)"/>
     <use xlink:href="#HiraginoSansGB-W3-516c" transform="translate(199.999969 0)"/>
     <use xlink:href="#HiraginoSansGB-W3-53f8" transform="translate(299.999954 0)"/>
     <use xlink:href="#HiraginoSansGB-W3-603b" transform="translate(399.999939 0)"/>
     <use xlink:href="#HiraginoSansGB-W3-8d44" transform="translate(499.999924 0)"/>
     <use xlink:href="#HiraginoSansGB-W3-4ea7" transform="translate(599.999908 0)"/>
     <use xlink:href="#HiraginoSansGB-W3-7684" transform="translate(699.999893 0)"/>
     <use xlink:href="#HiraginoSansGB-W3-5bf9" transform="translate(799.999878 0)"/>
     <use xlink:href="#HiraginoSansGB-W3-6570" transform="translate(899.999863 0)"/>
     <use xlink:href="#HiraginoSansGB-W3-5206" transform="translate(999.999847 0)"/>
     <use xlink:href="#HiraginoSansGB-W3-5e03" transform="translate(1099.999832 0)"/>
    </g>
   </g>
  </g>
 </g>
 <defs>
  <clipPath id="p6d71c5ebe6">
   <rect x="54.065" y="22.39125" width="334.8" height="221.76"/>
  </clipPath>
 </defs>
</svg>
